<svg width="570" height="57" viewBox="0 0 570 57" fill="none" xmlns="http://www.w3.org/2000/svg">
<g filter="url(#filter0_di_3_7)">
<path d="M17.064 38.528C13.512 38.528 10.52 37.04 8.088 34.064C5.656 31.088 4.44 27.44 4.44 23.12C4.44 17.84 5.896 13.392 8.808 9.776C11.752 6.16 15.352 4.352 19.608 4.352C21.272 4.352 22.808 4.528 24.216 4.88C25.656 5.2 26.68 5.536 27.288 5.888L28.152 6.416L24.888 13.088C24.152 12.448 23.112 11.856 21.768 11.312C20.424 10.736 19.208 10.448 18.12 10.448C15.912 10.448 14.136 11.36 12.792 13.184C11.48 15.008 10.824 17.616 10.824 21.008C10.824 24.368 11.512 27.136 12.888 29.312C14.264 31.456 16.136 32.528 18.504 32.528C20.04 32.528 21.432 32.048 22.68 31.088C23.928 30.128 24.808 28.848 25.32 27.248L29.304 29.552C28.248 32.368 26.632 34.576 24.456 36.176C22.28 37.744 19.816 38.528 17.064 38.528ZM144.409 33.296C141.913 36.432 139.753 38 137.929 38C135.657 38 133.785 37.072 132.313 35.216C130.873 33.36 130.153 30.976 130.153 28.064C130.153 24.064 131.257 20.688 133.465 17.936C135.705 15.184 138.441 13.808 141.673 13.808L144.361 14.192V13.28L143.785 2.048L150.361 0.847998L149.737 25.52V29.744C149.737 31.664 150.217 33.872 151.177 36.368L145.993 38.528C145.065 36.608 144.537 34.864 144.409 33.296ZM135.529 25.568C135.529 27.616 135.897 29.216 136.633 30.368C137.401 31.52 138.489 32.096 139.897 32.096C141.337 32.096 142.825 31.52 144.361 30.368V20C142.441 19.616 141.017 19.424 140.089 19.424C138.649 19.424 137.529 19.936 136.729 20.96C135.929 21.984 135.529 23.52 135.529 25.568Z" fill="#3C0F0F"/>
<path d="M31.6935 14.816L37.5015 13.568C37.7895 16.032 37.9815 18.368 38.0775 20.576C40.9895 16.064 43.7255 13.808 46.2855 13.808L45.7575 21.296C43.9015 21.296 42.4295 21.472 41.3415 21.824C40.2855 22.144 39.1975 22.8 38.0775 23.792V25.52L38.6055 36.8L32.1735 38L32.7495 26.336C32.6215 22.048 32.2695 18.208 31.6935 14.816ZM175.957 13.76C178.101 13.76 179.845 14.688 181.189 16.544C182.533 18.4 183.205 20.784 183.205 23.696C183.205 27.888 182.101 31.328 179.893 34.016C177.717 36.672 174.885 38 171.397 38C169.797 38 167.109 37.744 163.333 37.232L163.813 26.336L163.237 2.048L169.813 0.847998L169.189 13.232V18.416C169.541 17.904 169.973 17.36 170.485 16.784C170.997 16.208 171.797 15.568 172.885 14.864C173.973 14.128 174.997 13.76 175.957 13.76ZM174.085 20C172.613 20 170.981 20.448 169.189 21.344V25.52L169.477 32.576C170.821 32.736 172.085 32.816 173.269 32.816C176.341 32.816 177.877 30.688 177.877 26.432C177.877 22.144 176.613 20 174.085 20Z" fill="#F91A10"/>
<path d="M57.9709 33.104C58.8989 33.104 59.8749 32.864 60.8989 32.384C61.9229 31.904 62.7229 31.424 63.2989 30.944L64.1629 30.224L66.3709 32.912C66.0509 33.456 65.5549 34.08 64.8829 34.784C64.2109 35.488 63.5229 36.096 62.8189 36.608C62.1469 37.088 61.2349 37.536 60.0829 37.952C58.9629 38.336 57.7949 38.528 56.5789 38.528C53.9869 38.528 51.8749 37.552 50.2429 35.6C48.6109 33.616 47.7949 31.072 47.7949 27.968C47.7949 24.064 48.9309 20.64 51.2029 17.696C53.4749 14.752 56.1309 13.28 59.1709 13.28C61.5069 13.28 63.3149 13.936 64.5949 15.248C65.9069 16.56 66.5629 18.4 66.5629 20.768C66.5629 22.176 66.3229 23.776 65.8429 25.568L64.8829 26.576L52.8829 27.68C53.4269 31.296 55.1229 33.104 57.9709 33.104ZM57.9709 18.224C56.5629 18.224 55.3789 18.8 54.4189 19.952C53.4589 21.072 52.8989 22.512 52.7389 24.272L60.8989 23.264C60.9949 22.528 61.0429 21.92 61.0429 21.44C61.0429 19.296 60.0189 18.224 57.9709 18.224ZM187.862 47.264L192.806 36.176L189.254 26.48L184.406 14.816L190.79 13.616L193.862 23.84L195.446 28.688H196.07L197.222 25.184L200.678 13.568L206.582 14.288L198.086 36.608L194.054 48.56L187.862 47.264Z" fill="#E46B43"/>
<path d="M75.5528 38C73.6648 38 72.1128 37.408 70.8968 36.224C69.7128 35.008 69.1208 33.392 69.1208 31.376C69.1208 29.328 70.0488 27.568 71.9048 26.096C73.7608 24.592 76.0168 23.84 78.6728 23.84H81.9368V23.024C81.9368 21.456 81.6168 20.384 80.9768 19.808C80.3368 19.232 79.1368 18.944 77.3768 18.944C76.6408 18.944 75.7608 19.104 74.7368 19.424C73.7448 19.712 72.6248 20.176 71.3768 20.816L69.9848 17.024C71.3608 16.064 73.0248 15.2 74.9768 14.432C76.9608 13.664 78.5928 13.28 79.8728 13.28C84.8968 13.28 87.4088 15.712 87.4088 20.576V29.984C87.4088 31.776 87.9688 33.776 89.0888 35.984L84.0008 38.144C83.2008 36.608 82.6088 35.232 82.2248 34.016C80.4648 36.672 78.2408 38 75.5528 38ZM77.5688 33.104C78.8488 33.104 80.3048 32.448 81.9368 31.136V27.92C80.2408 27.536 78.8648 27.344 77.8088 27.344C75.7928 27.344 74.7848 28.24 74.7848 30.032C74.7848 30.96 75.0408 31.712 75.5528 32.288C76.0648 32.832 76.7368 33.104 77.5688 33.104Z" fill="#EDB195"/>
<path d="M95.1248 14.768V9.536L101.605 8.288L100.981 14.768H106.789L106.261 18.704H100.789L100.549 28.736C100.549 30.24 100.693 31.248 100.981 31.76C101.269 32.24 101.797 32.48 102.565 32.48C103.333 32.48 104.357 32.304 105.637 31.952L105.925 35.36C103.813 37.12 101.957 38 100.357 38C98.7568 38 97.4448 37.424 96.4208 36.272C95.3968 35.088 94.8848 33.552 94.8848 31.664L95.1728 26.288L95.1248 18.704H91.8128L92.3408 14.768H95.1248Z" fill="#2AA7C9"/>
<path d="M118.955 33.104C119.883 33.104 120.859 32.864 121.883 32.384C122.907 31.904 123.707 31.424 124.283 30.944L125.147 30.224L127.355 32.912C127.035 33.456 126.539 34.08 125.867 34.784C125.195 35.488 124.507 36.096 123.803 36.608C123.131 37.088 122.219 37.536 121.067 37.952C119.947 38.336 118.779 38.528 117.563 38.528C114.971 38.528 112.859 37.552 111.227 35.6C109.595 33.616 108.779 31.072 108.779 27.968C108.779 24.064 109.915 20.64 112.187 17.696C114.459 14.752 117.115 13.28 120.155 13.28C122.491 13.28 124.299 13.936 125.579 15.248C126.891 16.56 127.547 18.4 127.547 20.768C127.547 22.176 127.307 23.776 126.827 25.568L125.867 26.576L113.867 27.68C114.411 31.296 116.107 33.104 118.955 33.104ZM118.955 18.224C117.547 18.224 116.363 18.8 115.403 19.952C114.443 21.072 113.883 22.512 113.723 24.272L121.883 23.264C121.979 22.528 122.027 21.92 122.027 21.44C122.027 19.296 121.003 18.224 118.955 18.224Z" fill="#06628D"/>
<path d="M231.405 4.4C235.181 4.4 238.285 5.84 240.717 8.72C243.181 11.6 244.413 15.264 244.413 19.712C244.413 25.344 242.957 29.888 240.045 33.344C237.133 36.8 233.309 38.528 228.573 38.528C224.893 38.528 221.805 37.056 219.309 34.112C216.813 31.136 215.565 27.472 215.565 23.12C215.565 17.68 217.053 13.2 220.029 9.68C223.005 6.16 226.797 4.4 231.405 4.4ZM237.885 22.4C237.885 14.304 235.229 10.256 229.917 10.256C227.485 10.256 225.565 11.168 224.157 12.992C222.781 14.784 222.093 17.488 222.093 21.104C222.093 24.688 222.829 27.648 224.301 29.984C225.805 32.288 227.773 33.44 230.205 33.44C232.669 33.44 234.557 32.464 235.869 30.512C237.213 28.528 237.885 25.824 237.885 22.4ZM248.115 14.816L253.923 13.568C254.211 16.032 254.403 18.368 254.499 20.576C257.411 16.064 260.147 13.808 262.707 13.808L262.179 21.296C260.323 21.296 258.851 21.472 257.763 21.824C256.707 22.144 255.619 22.8 254.499 23.792V25.52L255.027 36.8L248.595 38L249.171 26.336C249.043 22.048 248.691 18.208 248.115 14.816ZM279.769 25.856C279.769 23.648 279.577 22.176 279.193 21.44C278.809 20.704 277.913 20.336 276.505 20.336C275.097 20.336 273.497 20.896 271.705 22.016V25.52L272.233 36.8L265.753 38L266.329 26.336L265.753 2.048L272.329 0.847998L271.705 13.28V18.896C272.185 18.256 272.729 17.632 273.337 17.024C273.945 16.416 274.889 15.728 276.169 14.96C277.449 14.192 278.809 13.808 280.249 13.808C281.721 13.808 282.953 14.384 283.945 15.536C284.937 16.656 285.433 18.192 285.433 20.144L285.145 25.52L285.673 37.04L279.193 38.24L279.769 25.856ZM295.772 38C293.884 38 292.332 37.408 291.116 36.224C289.932 35.008 289.34 33.392 289.34 31.376C289.34 29.328 290.268 27.568 292.124 26.096C293.98 24.592 296.236 23.84 298.892 23.84H302.156V23.024C302.156 21.456 301.836 20.384 301.196 19.808C300.556 19.232 299.356 18.944 297.596 18.944C296.86 18.944 295.98 19.104 294.956 19.424C293.964 19.712 292.844 20.176 291.596 20.816L290.204 17.024C291.58 16.064 293.244 15.2 295.196 14.432C297.18 13.664 298.812 13.28 300.092 13.28C305.116 13.28 307.628 15.712 307.628 20.576V29.984C307.628 31.776 308.188 33.776 309.308 35.984L304.22 38.144C303.42 36.608 302.828 35.232 302.444 34.016C300.684 36.672 298.46 38 295.772 38ZM297.788 33.104C299.068 33.104 300.524 32.448 302.156 31.136V27.92C300.46 27.536 299.084 27.344 298.028 27.344C296.012 27.344 295.004 28.24 295.004 30.032C295.004 30.96 295.26 31.712 295.772 32.288C296.284 32.832 296.956 33.104 297.788 33.104ZM327.392 25.856C327.392 23.648 327.2 22.176 326.816 21.44C326.432 20.704 325.536 20.336 324.128 20.336C322.72 20.336 321.12 20.896 319.328 22.016V25.52L319.856 36.8L313.424 38L314 26.336C313.872 22.048 313.52 18.208 312.944 14.816L318.752 13.568C318.976 15.424 319.136 17.232 319.232 18.992C319.712 18.352 320.256 17.728 320.864 17.12C321.472 16.48 322.432 15.776 323.744 15.008C325.056 14.208 326.432 13.808 327.872 13.808C329.344 13.808 330.576 14.384 331.568 15.536C332.56 16.656 333.056 18.192 333.056 20.144L332.768 25.52L333.296 37.04L326.816 38.24L327.392 25.856ZM360.499 4.4C364.275 4.4 367.379 5.84 369.811 8.72C372.275 11.6 373.507 15.264 373.507 19.712C373.507 25.344 372.051 29.888 369.139 33.344C366.227 36.8 362.403 38.528 357.667 38.528C353.987 38.528 350.899 37.056 348.403 34.112C345.907 31.136 344.659 27.472 344.659 23.12C344.659 17.68 346.147 13.2 349.123 9.68C352.099 6.16 355.891 4.4 360.499 4.4ZM366.979 22.4C366.979 14.304 364.323 10.256 359.011 10.256C356.579 10.256 354.659 11.168 353.251 12.992C351.875 14.784 351.187 17.488 351.187 21.104C351.187 24.688 351.923 27.648 353.395 29.984C354.899 32.288 356.867 33.44 359.299 33.44C361.763 33.44 363.651 32.464 364.963 30.512C366.307 28.528 366.979 25.824 366.979 22.4ZM376.921 33.248L387.049 18.8L376.441 19.52L377.545 13.472L385.753 14L393.769 13.424L392.953 18.416L382.777 32.912L394.441 32.24L393.385 38.288L385.225 37.76L376.105 38.288L376.921 33.248ZM402.553 38C400.665 38 399.113 37.408 397.897 36.224C396.713 35.008 396.121 33.392 396.121 31.376C396.121 29.328 397.049 27.568 398.905 26.096C400.761 24.592 403.017 23.84 405.673 23.84H408.937V23.024C408.937 21.456 408.617 20.384 407.977 19.808C407.337 19.232 406.137 18.944 404.377 18.944C403.641 18.944 402.761 19.104 401.737 19.424C400.745 19.712 399.625 20.176 398.377 20.816L396.985 17.024C398.361 16.064 400.025 15.2 401.977 14.432C403.961 13.664 405.593 13.28 406.873 13.28C411.897 13.28 414.409 15.712 414.409 20.576V29.984C414.409 31.776 414.969 33.776 416.089 35.984L411.001 38.144C410.201 36.608 409.609 35.232 409.225 34.016C407.465 36.672 405.241 38 402.553 38ZM404.569 33.104C405.849 33.104 407.305 32.448 408.937 31.136V27.92C407.241 27.536 405.865 27.344 404.809 27.344C402.793 27.344 401.785 28.24 401.785 30.032C401.785 30.96 402.041 31.712 402.553 32.288C403.065 32.832 403.737 33.104 404.569 33.104ZM434.173 25.856C434.173 23.648 433.981 22.176 433.597 21.44C433.213 20.704 432.317 20.336 430.909 20.336C429.501 20.336 427.901 20.896 426.109 22.016V25.52L426.637 36.8L420.205 38L420.781 26.336C420.653 22.048 420.301 18.208 419.725 14.816L425.533 13.568C425.757 15.424 425.917 17.232 426.013 18.992C426.493 18.352 427.037 17.728 427.645 17.12C428.253 16.48 429.213 15.776 430.525 15.008C431.837 14.208 433.213 13.808 434.653 13.808C436.125 13.808 437.357 14.384 438.349 15.536C439.341 16.656 439.837 18.192 439.837 20.144L439.549 25.52L440.077 37.04L433.597 38.24L434.173 25.856ZM463.584 19.04H464.16L467.712 12.512L471.312 4.592L477.168 5.456L472.752 13.472L466.512 25.664L467.04 38H460.32L460.8 26.48L454.752 14.192L450.144 5.792L456.912 4.592L460.032 11.888L463.584 19.04ZM486.544 13.568L485.968 25.52L486.496 36.8L480.064 38L480.64 26.336L480.112 14.768L486.544 13.568ZM498.407 0.847998L497.783 25.52L498.311 36.8L491.831 38L492.407 26.336L491.831 2.048L498.407 0.847998ZM516.644 33.296C514.148 36.432 511.988 38 510.164 38C507.892 38 506.02 37.072 504.548 35.216C503.108 33.36 502.388 30.976 502.388 28.064C502.388 24.064 503.492 20.688 505.7 17.936C507.94 15.184 510.676 13.808 513.908 13.808L516.596 14.192V13.28L516.02 2.048L522.596 0.847998L521.972 25.52V29.744C521.972 31.664 522.452 33.872 523.412 36.368L518.228 38.528C517.3 36.608 516.772 34.864 516.644 33.296ZM507.764 25.568C507.764 27.616 508.132 29.216 508.868 30.368C509.636 31.52 510.724 32.096 512.132 32.096C513.572 32.096 515.06 31.52 516.596 30.368V20C514.676 19.616 513.252 19.424 512.324 19.424C510.884 19.424 509.764 19.936 508.964 20.96C508.164 21.984 507.764 23.52 507.764 25.568ZM534.497 13.568L533.921 25.52L534.449 36.8L528.017 38L528.593 26.336L528.065 14.768L534.497 13.568ZM538.968 33.248L549.096 18.8L538.488 19.52L539.592 13.472L547.8 14L555.816 13.424L555 18.416L544.824 32.912L556.488 32.24L555.432 38.288L547.272 37.76L538.152 38.288L538.968 33.248ZM558.456 34.784C558.456 33.76 558.824 32.864 559.56 32.096C560.328 31.296 561.24 30.896 562.296 30.896C564.376 30.896 565.416 31.952 565.416 34.064C565.416 35.28 565.032 36.288 564.264 37.088C563.528 37.888 562.648 38.288 561.624 38.288C560.632 38.288 559.848 37.968 559.272 37.328C558.728 36.656 558.456 35.808 558.456 34.784Z" fill="#04284D"/>
</g>
<defs>
<filter id="filter0_di_3_7" x="0.439941" y="0.848" width="568.976" height="55.712" filterUnits="userSpaceOnUse" color-interpolation-filters="sRGB">
<feFlood flood-opacity="0" result="BackgroundImageFix"/>
<feColorMatrix in="SourceAlpha" type="matrix" values="0 0 0 0 0 0 0 0 0 0 0 0 0 0 0 0 0 0 127 0" result="hardAlpha"/>
<feOffset dy="4"/>
<feGaussianBlur stdDeviation="2"/>
<feComposite in2="hardAlpha" operator="out"/>
<feColorMatrix type="matrix" values="0 0 0 0 0 0 0 0 0 0 0 0 0 0 0 0 0 0 0.25 0"/>
<feBlend mode="normal" in2="BackgroundImageFix" result="effect1_dropShadow_3_7"/>
<feBlend mode="normal" in="SourceGraphic" in2="effect1_dropShadow_3_7" result="shape"/>
<feColorMatrix in="SourceAlpha" type="matrix" values="0 0 0 0 0 0 0 0 0 0 0 0 0 0 0 0 0 0 127 0" result="hardAlpha"/>
<feOffset dy="4"/>
<feGaussianBlur stdDeviation="2"/>
<feComposite in2="hardAlpha" operator="arithmetic" k2="-1" k3="1"/>
<feColorMatrix type="matrix" values="0 0 0 0 0 0 0 0 0 0 0 0 0 0 0 0 0 0 0.25 0"/>
<feBlend mode="normal" in2="shape" result="effect2_innerShadow_3_7"/>
</filter>
</defs>
</svg>
